:SAMPLES-PER-SECOND 30
:FULLY-SPECIFIED
:DEGREES
917
root  -5.87341 38.2251 -6.28474 55.463 -86.5977 -57.1177
RightUpLeg  -19.4972 -12.287 5.49874
RightLeg  26.7169 3.529 1.69119
RightFoot  -6.19653 0.13049 -3.81804
RightToes  -2.9104e-010 0 -3.6325e-017
Spine  7.20102 -1.04628 14.2082
Spine1  6.88196 0.207924 0.521247
HEad  -19.5513 0.0912003 -2.75603
LeftShoulder1  -0.342696 4.34363 -34.6449
LeftArm  20.3802 3.53666 -46.7214
LeftForeArm  11.6921 -30.9223 -6.11677
LeftHand  -0.112758 3.0087 4.71489
RightShoulder  -0.803633 -5.72549 29.5263
RightArm  15.5706 17.0669 49.1275
RightForeArm  12.3488 9.9329 7.52257
RightHand  -0.4829 7.39827 -4.74283
LeftUpLeg  -3.28472 7.12977 8.23951
LeftLeg  56.3108 1.3713 2.74191
LeftFoot  1.31699 0.130898 -1.26209
LeftToes  -3.37426e-010 -1.91496e-010 5.23909e-011
918
root  -6.96787 38.5157 -6.32589 69.2299 -87.5368 -71.0021
RightUpLeg  -16.4878 -11.4937 4.51542
RightLeg  25.0741 4.10866 2.06091
RightFoot  -7.75454 0.0344931 -2.78944
RightToes  -2.9104e-010 0 -3.6325e-017
Spine  6.97911 -0.549151 14.9921
Spine1  7.20301 1.18877 -0.997676
HEad  -20.3426 -0.744678 -3.2607
LeftShoulder1  -0.353284 4.36834 -34.6991
LeftArm  21.1886 4.82204 -45.1481
LeftForeArm  10.5865 -28.5907 -5.61421
LeftHand  -0.161848 2.51472 6.1584
RightShoulder  -0.714039 -5.52278 28.7077
RightArm  17.8513 20.4302 50.3388
RightForeArm  8.97369 12.4121 7.23519
RightHand  -0.639084 8.27891 -5.7594
LeftUpLeg  -7.55576 7.81824 7.53697
LeftLeg  59.3934 -0.233483 0.158147
LeftFoot  0.499838 0.227112 -2.21047
LeftToes  -3.37426e-010 -1.91496e-010 5.23909e-011
919
root  -8.07827 38.8239 -6.34605 91.4052 -88.3064 -93.1823
RightUpLeg  -13.3812 -10.232 3.15688
RightLeg  22.9751 3.98315 2.41311
RightFoot  -8.89301 -0.021902 -1.77453
RightToes  -2.9104e-010 0 -3.6325e-017
Spine  7.16528 -0.127459 15.8318
Spine1  6.58374 2.16364 -3.15449
HEad  -20.2382 -1.78413 -3.05523
LeftShoulder1  -0.308696 4.26507 -34.4005
LeftArm  21.667 7.01297 -43.2678
LeftForeArm  8.55803 -26.4371 -5.22231
LeftHand  -0.085563 3.83014 5.12482
RightShoulder  -0.759369 -5.65968 28.5735
RightArm  20.5409 23.2665 50.9022
RightForeArm  5.36574 15.0954 6.62841
RightHand  -0.820322 8.94483 -6.997
LeftUpLeg  -11.6819 8.10275 6.27468
LeftLeg  59.8435 -0.434095 -0.254197
LeftFoot  -0.280021 0.173006 -1.77041
LeftToes  -3.37426e-010 -1.91496e-010 5.23909e-011
920
root  -9.19013 39.0771 -6.37192 132.105 -88.8041 -133.891
RightUpLeg  -10.3546 -9.31886 1.80154
RightLeg  20.9094 4.07289 2.71928
RightFoot  -10.1586 -0.0598809 -0.903885
RightToes  -2.9104e-010 0 -3.6325e-017
Spine  7.17729 0.354898 15.9017
Spine1  6.24041 2.8968 -4.57873
HEad  -20.5266 -2.58032 -3.42759
LeftShoulder1  -0.285113 4.21025 -34.2105
LeftArm  22.076 9.50252 -41.444
LeftForeArm  7.39335 -24.4311 -4.84295
LeftHand  -0.0459692 4.6942 4.4917
RightShoulder  -0.70456 -5.55484 27.6906
RightArm  22.3924 25.3073 51.5404
RightForeArm  4.73392 18.1959 5.52022
RightHand  -0.509486 9.07184 -4.47111
LeftUpLeg  -15.1811 8.17024 4.87467
LeftLeg  57.673 -0.0843882 0.384626
LeftFoot  -2.00991 0.15173 -1.71304
LeftToes  -3.37426e-010 -1.91496e-010 5.23909e-011
921
root  -10.2817 39.2379 -6.41228 163.691 -88.9289 -165.432
RightUpLeg  -7.69344 -9.03561 0.756671
RightLeg  19.3315 4.24018 2.85012
RightFoot  -11.3885 -0.0783847 -0.598055
RightToes  -2.9104e-010 0 -3.6325e-017
Spine  7.05848 0.595183 15.6911
Spine1  6.04675 3.2345 -5.56598
HEad  -20.9075 -3.77434 -3.36289
LeftShoulder1  -0.260664 4.15352 -33.9836
LeftArm  21.7552 11.8854 -39.7869
LeftForeArm  8.21092 -22.3284 -4.77284
LeftHand  -0.0124997 5.96835 3.92181
RightShoulder  -0.687698 -5.53453 27.1859
RightArm  22.8716 27.3269 51.8207
RightForeArm  3.13342 20.693 4.91614
RightHand  -0.613343 9.93058 -5.03845
LeftUpLeg  -18.2842 7.65783 3.81402
LeftLeg  53.3751 0.0994073 0.601487
LeftFoot  -2.94212 0.125939 -1.47062
LeftToes  -3.37426e-010 -1.91496e-010 5.23909e-011
